<svg fill="none" height="40" width="115" xmlns="http://www.w3.org/2000/svg"><clipPath id="a"><path d="M0 0h115v40H0z"/></clipPath><g clip-path="url(#a)" fill="#103559"><path d="M32.569 32.632c.642 0 1.174.217 1.6.647.437.43.648.965.648 1.601 0 .637-.211 1.162-.648 1.602-.426.43-.958.647-1.6.647h-1.384v2.345h-1.116v-6.837h2.5zm0 3.437c.658 0 1.132-.499 1.132-1.194s-.474-1.193-1.132-1.193h-1.384v2.381h1.384zm3.927 1.447c.161.685.79 1.062 1.641 1.062.585 0 1.024-.19 1.325-.558l.912.47c-.5.656-1.252.984-2.242.984-.83 0-1.508-.225-2.02-.666a2.17 2.17 0 0 1-.768-1.703c0-.685.256-1.233.757-1.683.5-.46 1.157-.685 1.947-.685.746 0 1.364.235 1.842.695.484.46.73 1.027.73 1.683 0 .098-.012.235-.04.406h-4.078zm3.005-.792c-.156-.73-.74-1.111-1.464-1.111-.818 0-1.39.426-1.547 1.11zm4.283-1.178h-1.21v2.351c0 .628.409.617 1.21.58v.952c-1.614.197-2.267-.245-2.267-1.527v-2.35h-.898V34.53h.898v-1.058l1.057-.314v1.372h1.21v1.021zm2.603 1.136c.713.151 1.637.44 1.617 1.405 0 .431-.175.774-.517 1.02s-.769.367-1.286.367c-.914 0-1.593-.397-1.889-1.053l.859-.485c.156.43.497.651 1.025.651s.789-.171.789-.504c0-.29-.387-.46-.88-.578-.693-.172-1.627-.441-1.607-1.392 0-.416.156-.75.482-.999.322-.255.734-.377 1.21-.377.77 0 1.387.353 1.714.94l-.844.46c-.156-.342-.452-.513-.87-.513-.376 0-.672.161-.672.48 0 .298.386.45.869.587zm7.948-3.044c-.831-.068-1.235.25-1.235.947v.094h1.235v1H53.1v3.795h-1.133v-3.795h-.797v-1h.797v-.094c0-1.312.82-2.03 2.368-1.947zm1.298 5.15c-.51-.46-.77-1.017-.77-1.683s.26-1.223.77-1.683c.51-.46 1.14-.685 1.867-.685.727 0 1.357.225 1.867.685.51.46.77 1.018.77 1.683s-.26 1.224-.77 1.684c-.51.46-1.129.685-1.867.685s-1.357-.225-1.867-.685zm1.867-.259c.44 0 .809-.137 1.107-.406s.45-.612.45-1.018a1.32 1.32 0 0 0-.45-1.018c-.298-.269-.667-.406-1.107-.406s-.809.137-1.107.406a1.32 1.32 0 0 0-.45 1.018c0 .406.151.749.45 1.018s.667.406 1.107.406zm4.252-2.928c.273-.576.797-.864 1.55-.864v1.087c-.409-.03-.775.066-1.086.278-.311.207-.464.55-.464 1.026v2.346h-1.087v-4.656h1.087zm9.464 1.92c0 .557-.187 1.024-.567 1.395-.379.372-.839.558-1.385.558h-2.796v-6.842h2.589c.53 0 .986.185 1.35.546.374.361.556.813.556 1.349 0 .594-.223 1.056-.663 1.396.567.313.91.88.91 1.592zm-3.676-3.833v1.8h1.517c.475 0 .839-.394.839-.898s-.364-.897-.84-.897H67.54zm1.724 4.73c.495 0 .885-.42.885-.956s-.39-.956-.885-.956H67.54v1.917h1.724zm4.157-.902c.161.685.79 1.062 1.64 1.062.584 0 1.023-.19 1.323-.558l.912.47c-.5.656-1.251.984-2.24.984-.829 0-1.507-.225-2.018-.666a2.172 2.172 0 0 1-.767-1.703c0-.685.255-1.233.756-1.683.5-.46 1.156-.685 1.945-.685.745 0 1.362.235 1.846.695s.728 1.027.728 1.683c0 .098-.011.235-.039.406h-4.075zm3.002-.792c-.156-.73-.74-1.111-1.462-1.111-.817 0-1.39.426-1.545 1.11h3.013zm3.198-.042c.713.151 1.637.44 1.617 1.405 0 .431-.176.774-.517 1.02s-.769.367-1.286.367c-.915 0-1.593-.397-1.89-1.053l.86-.485c.156.43.497.651 1.025.651s.788-.171.788-.504c0-.29-.386-.46-.879-.578-.693-.172-1.627-.441-1.607-1.392 0-.416.155-.75.482-.999.321-.255.733-.377 1.21-.377.77 0 1.387.353 1.714.94l-.844.46c-.156-.342-.452-.513-.87-.513-.376 0-.673.161-.673.48 0 .298.387.45.87.587zm5.31-1.136h-1.209v2.351c0 .628.409.617 1.21.58v.952c-1.612.197-2.265-.245-2.265-1.527v-2.35h-.9V34.53h.9v-1.058l1.055-.314v1.372h1.21v1.021zM24.99 3.215c-.138-1.362-.685-1.636-1.747-1.636h-4.524c-.993 0-1.232.169-1.61 1.261l-3.392 11.033L10.323 2.84c-.377-1.092-.616-1.261-1.61-1.261H4.185c-1.062 0-1.609.274-1.747 1.636l-2.4 21.658c-.1.781-.032 1.092.653 1.193l5.178.749c.785.1.96-.069 1.062-.649L8.06 16.02l2.433 9.502c.238.781.546 1.093 1.338 1.093h3.77c.786 0 1.099-.307 1.338-1.093l2.4-9.502 1.163 10.146c.1.58.276.75 1.062.649l5.177-.75c.685-.1.754-.406.653-1.192zm12.465 4.153c-5.81 0-8.968 3.983-8.968 9.474s3.158 9.474 8.968 9.474 8.968-3.983 8.968-9.474-3.158-9.474-8.968-9.474zm0 12.751c-1.395 0-2.142-1.307-2.142-3.282s.747-3.282 2.142-3.282 2.142 1.306 2.142 3.282-.747 3.282-2.142 3.282zM59.452 7.38c-1.191 0-10.103.237-10.683 1.052-.237.273-.237.647-.237 1.288l.274 14.798c.032 1.357.343 1.799 1.528 1.799h4.153c1.191 0 1.529-.442 1.529-1.799V14.3c.51-.168.68-.236 1.26-.273.78-.032 1.153.205 1.396.847.169.678.205 1.698.205 3.087l-.031 6.552c0 1.357.374 1.798 1.565 1.798h4.253c1.191 0 1.497-.441 1.528-1.798l.274-9.03c.032-2.208-.442-4.243-1.565-5.737-1.19-1.493-2.962-2.377-5.444-2.377zm15.962 2.095h-4.275c-1.17 0-1.506.403-1.506 1.76v13.29c0 1.352.336 1.792 1.506 1.792h4.342c1.17 0 1.537-.44 1.537-1.792l-.067-13.29c0-1.32-.367-1.76-1.537-1.76zM73.589.526c-2.531 0-3.956 1.56-3.956 3.685s1.425 3.684 3.956 3.684c2.532 0 3.957-1.56 3.957-3.684S76.12.526 73.589.526zM91.947 7.92h-2.63V3.344c0-1.355-.348-1.765-1.553-1.765h-4.08c-1.211 0-1.591.441-1.591 1.765V7.92H80.02c-1.14 0-1.42.205-1.42 1.255v3.699c0 1.05.28 1.255 1.42 1.255h2.073v6.44c0 4.34 2.313 6.273 6.673 6.273 1.28 0 2.56-.1 3.77-.341.52-.1.659-.237.659-.746l-.172-5.19c0-.442-.24-.61-.69-.51-.38.1-.76.168-1.28.168-1.002 0-1.73-.341-1.73-1.797V14.12h2.63c1.14 0 1.419-.205 1.419-1.256V9.165c0-1.05-.279-1.256-1.42-1.256zm11.447-.552c-5.81 0-8.967 3.983-8.967 9.474s3.157 9.474 8.967 9.474c5.811 0 8.968-3.983 8.968-9.474s-3.157-9.474-8.968-9.474zm0 12.751c-1.394 0-2.141-1.307-2.141-3.282s.747-3.282 2.141-3.282c1.395 0 2.142 1.306 2.142 3.282s-.747 3.282-2.142 3.282zM114.03 8.11c-.609-.44-1.608-.185-2.238.567-.631.753-.647 1.72-.042 2.16.609.44 1.608.186 2.238-.567.631-.752.646-1.72.042-2.16zM99.685 6.831c.717-.11 1.186-1.016 1.048-2.027-.139-1.012-.826-1.745-1.542-1.635-.717.11-1.186 1.016-1.048 2.027.139 1.012.826 1.745 1.542 1.635zm9.284.93c.991.5 2.492-.446 3.346-2.116.854-1.67.745-3.432-.252-3.932-.991-.5-2.492.446-3.346 2.116-.854 1.67-.745 3.432.252 3.932zm-5.132-1.454c.999.127 1.968-1.181 2.161-2.919.193-1.743-.46-3.252-1.464-3.38-.999-.127-1.968 1.182-2.161 2.92-.193 1.742.46 3.252 1.464 3.38z"/></g></svg>