<svg fill="none" height="40" viewBox="0 0 115 40" width="115" xmlns="http://www.w3.org/2000/svg" xmlns:xlink="http://www.w3.org/1999/xlink"><clipPath id="a"><path d="m0 0h115v40h-115z"/></clipPath><g clip-path="url(#a)" fill="#103559"><path d="m32.569 32.6316c.6421 0 1.1738.2175 1.6001.6471.4369.4296.6474.9653.6474 1.6018 0 .6364-.2105 1.1615-.6474 1.6018-.4263.4296-.958.647-1.6001.647h-1.3843v2.3444h-1.1159v-6.8368h2.5002zm0 3.437c.6579 0 1.1317-.4986 1.1317-1.1934 0-.6949-.4738-1.1934-1.1317-1.1934h-1.3843v2.3815h1.3843z"/><path d="m36.4959 37.5163c.1614.6851.7902 1.0619 1.6416 1.0619.5843 0 1.0239-.1909 1.3243-.5579l.9126.4698c-.5008.6557-1.252.9836-2.2425.9836-.8291 0-1.508-.2251-2.0199-.6655-.512-.4502-.7679-1.0179-.7679-1.7029 0-.6851.2559-1.2332.7567-1.6834.5009-.46 1.1575-.6851 1.9476-.6851.7457 0 1.3634.2349 1.8419.6949.4841.46.729 1.0276.729 1.6834 0 .0978-.0111.2348-.039.4061h-4.0788zm3.0049-.7927c-.1558-.7291-.7401-1.1108-1.4635-1.1108-.818 0-1.3911.4257-1.5469 1.1108z"/><path d="m43.7844 35.5461h-1.2108v2.3509c0 .6277.4089.617 1.2108.5798v.9521c-1.6144.1968-2.2676-.2447-2.2676-1.5265v-2.351h-.8975v-1.0212h.8975v-1.0585l1.0568-.3138v1.3723h1.2108v1.0212z"/><path d="m46.3867 36.6815c.7133.1519 1.6377.4409 1.6176 1.4059 0 .4311-.1758.774-.5174 1.0189s-.7687.3674-1.2861.3674c-.9143 0-1.5925-.3968-1.8888-1.0532l.859-.4849c.1557.431.4973.6515 1.0248.6515s.7887-.1715.7887-.5046c0-.289-.3868-.4604-.8791-.578-.6933-.1715-1.6277-.4409-1.6076-1.3912 0-.4163.1558-.7494.4823-.9993.3215-.2547.7334-.3772 1.2107-.3772.7686 0 1.3865.3527 1.713.9406l-.8439.4604c-.1558-.3429-.4522-.5143-.8691-.5143-.3768 0-.6732.1616-.6732.48 0 .2988.3868.4507.8691.5878z"/><path d="m54.3349 33.6377c-.8312-.0677-1.2353.2499-1.2353.9475v.0937h1.2353v.9996h-1.2353v3.7952h-1.1329v-3.7952h-.797v-.9996h.797v-.0937c0-1.3119.8198-2.0304 2.3682-1.9471z"/><path d="m55.6331 38.7886c-.5102-.46-.7707-1.0178-.7707-1.6833s.2605-1.2234.7707-1.6834c.5101-.46 1.1397-.6851 1.8669-.6851.7273 0 1.3568.2251 1.867.6851.5101.46.7706 1.0179.7706 1.6834s-.2605 1.2233-.7706 1.6833c-.5102.46-1.1289.6851-1.867.6851s-1.3568-.2251-1.8669-.6851zm1.8669-.2593c.4396 0 .8087-.1371 1.1072-.4062s.4504-.6117.4504-1.0178c0-.4062-.1519-.7487-.4504-1.0179-.2985-.2691-.6676-.4061-1.1072-.4061s-.8086.137-1.1071.4061c-.2985.2692-.4505.6117-.4505 1.0179 0 .4061.152.7487.4505 1.0178s.6675.4062 1.1071.4062z"/><path d="m61.7519 35.6013c.273-.5763.7973-.8645 1.5509-.8645v1.0869c-.4096-.0303-.7755.0658-1.0867.2781-.3113.2073-.4642.551-.4642 1.0262v2.3457h-1.0867v-4.656h1.0867z"/><path d="m71.2156 37.5203c0 .5574-.1871 1.0245-.5663 1.396-.3792.3716-.8393.5574-1.3854.5574h-2.796v-6.8421h2.5887c.5309 0 .986.1858 1.35.5467.3742.361.5562.8122.5562 1.3483 0 .5945-.2225 1.0563-.6624 1.396.5663.3132.9101.8811.9101 1.5924zm-3.6758-3.8324v1.7994h1.5168c.4753 0 .8394-.3928.8394-.897 0-.5043-.3641-.8971-.8394-.8971h-1.5168zm1.7241 4.7295c.4955 0 .8849-.4193.8849-.9555 0-.5361-.3894-.9554-.8849-.9554h-1.7241v1.9162h1.7241z"/><path d="m73.4213 37.5163c.1612.6851.7894 1.0619 1.6398 1.0619.5837 0 1.0228-.1909 1.323-.5579l.9116.4698c-.5002.6557-1.2507.9836-2.2401.9836-.8283 0-1.5064-.2251-2.0178-.6655-.5114-.4502-.7671-1.0179-.7671-1.7029 0-.6851.2557-1.2332.7559-1.6834.5003-.46 1.1563-.6851 1.9456-.6851.7449 0 1.3619.2349 1.8455.6949s.7282 1.0276.7282 1.6834c0 .0978-.0111.2348-.0389.4061h-4.0746zm3.0017-.7927c-.1556-.7291-.7393-1.1108-1.4619-1.1108-.8171 0-1.3897.4257-1.5453 1.1108h3.0128z"/><path d="m79.6206 36.6815c.7134.1519 1.6377.4409 1.6176 1.4059 0 .4311-.1758.774-.5174 1.0189s-.7686.3674-1.2861.3674c-.9143 0-1.5924-.3968-1.8888-1.0532l.859-.4849c.1557.431.4973.6515 1.0248.6515s.7887-.1715.7887-.5046c0-.289-.3868-.4604-.8791-.578-.6933-.1715-1.6277-.4409-1.6076-1.3912 0-.4163.1558-.7494.4823-.9993.3215-.2547.7334-.3772 1.2107-.3772.7686 0 1.3865.3527 1.713.9406l-.8439.4604c-.1558-.3429-.4522-.5143-.8691-.5143-.3768 0-.6732.1616-.6732.48 0 .2988.3868.4507.8691.5878z"/><path d="m84.9312 35.5461h-1.2088v2.3509c0 .6277.4082.617 1.2088.5798v.9521c-1.6117.1968-2.2639-.2447-2.2639-1.5265v-2.351h-.9012v-1.0212h.9012v-1.0585l1.0551-.3138v1.3723h1.2088v1.0212z"/><path d="m24.9886 3.21457c-.1381-1.36126-.685-1.63562-1.747-1.63562h-4.5241c-.9929 0-1.2319.16884-1.6089 1.26101l-3.393 11.03254-3.393-11.03254c-.37705-1.09217-.616-1.26101-1.60896-1.26101h-4.52936c-1.06199 0-1.60891.27436-1.74697 1.63562l-2.4000876 21.65873c-.1008886.7809-.03185956 1.0922.6531216 1.1924l5.177176.7493c.78587.1002.9611-.0686 1.06199-.649l1.13101-10.1461 2.43198 9.5024c.2389.7809.5469 1.0922 1.3381 1.0922h3.77c.7859 0 1.0992-.3061 1.3381-1.0922l2.4001-9.5024 1.1629 10.1461c.1009.5804.2761.7492 1.062.649l5.1772-.7493c.6849-.1002.754-.4062.6531-1.1924z"/><path d="m37.4541 7.36841c-5.8102 0-8.9679 3.98239-8.9679 9.47369s3.1577 9.4737 8.9679 9.4737 8.9679-3.9824 8.9679-9.4737-3.1577-9.47369-8.9679-9.47369zm0 12.75089c-1.3946 0-2.142-1.3068-2.142-3.2824s.7474-3.2823 2.142-3.2823c1.3947 0 2.142 1.3067 2.142 3.2823s-.7473 3.2824-2.142 3.2824z"/><path d="m59.4518 7.37893c-1.191 0-10.1028.23664-10.6825 1.05175-.2372.27346-.2372.64683-.2372 1.2884l.2741 14.79822c.0316 1.3567.3425 1.7985 1.5283 1.7985h4.1529c1.191 0 1.5283-.4418 1.5283-1.7985v-10.2178c.5112-.1683.6799-.2367 1.2596-.2735.78-.0315 1.1541.2051 1.3966.8467.1686.6784.2055 1.6986.2055 3.0869l-.0316 6.5524c0 1.3568.3742 1.7985 1.5652 1.7985h4.253c1.1911 0 1.4967-.4417 1.5284-1.7985l.274-9.0293c.0316-2.2087-.4427-4.2438-1.5652-5.73733-1.1911-1.49349-2.9618-2.37696-5.4441-2.37696z"/><path d="m75.414 9.47369h-4.2749c-1.1697 0-1.5061.40338-1.5061 1.76021v13.2903c0 1.3516.3364 1.7916 1.5061 1.7916h4.3421c1.1697 0 1.5371-.44 1.5371-1.7916l-.0672-13.2903c0-1.32016-.3675-1.76021-1.5371-1.76021z"/><path d="m73.5894.526306c-2.5318 0-3.9564 1.559104-3.9564 3.684214s1.4246 3.68421 3.9564 3.68421c2.5319 0 3.9565-1.5591 3.9565-3.68421s-1.4246-3.684214-3.9565-3.684214z"/><path d="m91.947 7.91969h-2.6296v-4.57563c0-1.35535-.3481-1.76511-1.5531-1.76511h-4.081c-1.2103 0-1.5906.44128-1.5906 1.76511v4.57563h-2.0726c-1.1407 0-1.4192.20488-1.4192 1.25554v3.69837c0 1.0506.2785 1.2555 1.4192 1.2555h2.0726v6.4406c0 4.3392 2.3136 6.2724 6.6731 6.2724 1.28 0 2.5599-.0998 3.7703-.3415.5195-.0998.6587-.2364.6587-.7459l-.1714-5.1903c0-.4413-.2409-.6094-.6908-.5096-.3803.0998-.7605.1681-1.28.1681-1.0015 0-1.7298-.3414-1.7298-1.7966v-4.3077h2.6295c1.1408 0 1.4193-.2049 1.4193-1.2555v-3.69837c0-1.05067-.2785-1.25555-1.4193-1.25555z"/><path d="m103.394 7.36841c-5.8097 0-8.9674 3.98239-8.9674 9.47369s3.1577 9.4737 8.9674 9.4737c5.811 0 8.968-3.9824 8.968-9.4737s-3.157-9.47369-8.968-9.47369zm0 12.75089c-1.394 0-2.141-1.3068-2.141-3.2824s.747-3.2823 2.141-3.2823c1.395 0 2.142 1.3067 2.142 3.2823s-.747 3.2824-2.142 3.2824z"/><path d="m114.03 8.11046c-.609-.43975-1.608-.18567-2.238.56679-.631.75247-.647 1.71995-.042 2.15965.609.4398 1.608.1857 2.238-.5668.631-.75243.646-1.71989.042-2.15964z"/><path d="m99.6851 6.83118c.7169-.11003 1.1859-1.01645 1.0479-2.02766-.139-1.0112-.8255-1.74472-1.542-1.6347-.7165.11003-1.1859 1.01645-1.0476 2.02766.1384 1.01121.8252 1.74473 1.5417 1.6347z"/><path d="m108.969 7.76093c.991.50039 2.492-.446 3.346-2.11577.854-1.66978.745-3.43202-.252-3.9324-.991-.50039-2.492.44599-3.346 2.11577-.854 1.66977-.745 3.43201.252 3.9324z"/><path d="m103.837 6.30726c.999.12714 1.968-1.18135 2.161-2.91892.193-1.74288-.46-3.252666-1.464-3.3798058-.999-.1271402-1.968 1.1813458-2.161 2.9189158-.193 1.74288.46 3.25267 1.464 3.37981z"/></g></svg>