<svg viewBox="0 0 14 14" xmlns="http://www.w3.org/2000/svg"><path fill="#002A48" d="M5.14-22.24q.32-.2.68.02l3.93 2.4q.3.19.3.54 0 .35-.31.57l-3.94 2.4q-.36.16-.69 0 -.33-.2-.33-.58v-4.84q0-.36.32-.55v0Zm8.85 2.98q-.03 1.96-.96 3.52v0q-.93 1.58-2.52 2.51v0q-1.56.92-3.53.95 -1.97-.03-3.53-.96 -1.59-.93-2.52-2.52 -.93-1.56-.96-3.53 .02-1.97.95-3.53 .92-1.59 2.51-2.52 1.55-.93 3.52-.96 1.96.02 3.52.95 1.58.92 2.51 2.51 .92 1.55.95 3.52Zm-7-5.69q-2.41.05-4.02 1.66v0q-1.62 1.61-1.67 4.01 .05 2.4 1.66 4.01 1.61 1.61 4.01 1.66 2.4-.06 4.01-1.67 1.61-1.62 1.66-4.02 -.06-2.41-1.67-4.02 -1.62-1.62-4.02-1.67Z" transform="translate(0 26.25)"/></svg>