<svg width="27" height="27" viewBox="0 0 27 27" fill="none" xmlns="http://www.w3.org/2000/svg">
<g clip-path="url(#clip0_114_1601)">
<path d="M11.2387 6.23168L13.6665 5.87498C14.6106 5.73629 15.3322 4.96141 15.4034 4.00988L15.6653 0.511214C15.6934 0.13585 15.2945 -0.121441 14.9641 0.0589108L12.746 1.26985C11.9879 1.68371 11.4553 2.41556 11.2947 3.26416L10.8163 5.79135C10.7684 6.04437 10.984 6.26912 11.2387 6.23168Z" fill="#FFE07D"/>
<path d="M14.9644 0.058912L13.9092 0.634982L13.6599 3.96532C13.5887 4.91686 12.8671 5.69168 11.923 5.83043L10.8335 5.99053C10.8922 6.14878 11.0552 6.25868 11.2391 6.23163L13.6669 5.87488C14.6109 5.73619 15.3325 4.96131 15.4037 4.00977L15.6656 0.511109C15.6937 0.135851 15.2948 -0.12144 14.9644 0.058912Z" fill="#FFD064"/>
<path d="M6.86708 15.955L8.46551 15.6187C8.81509 15.6589 9.04322 16.0055 8.94181 16.3425L8.51303 17.7674L12.5039 23.3514H15.1576L25.1907 21.3855L19.5051 9.97894C18.6581 8.27947 17.6579 6.66068 16.5172 5.14267C14.7782 2.53427 11.257 1.8241 8.64291 3.55457L6.94945 4.67565C6.24661 5.14093 5.78697 5.89461 5.69501 6.73251L5.54276 8.12C5.48839 8.61581 5.14826 9.03362 4.6738 9.18755L1.61194 10.1808L0.985352 12.6554L1.16744 13.0343C1.72015 14.1843 2.8243 14.9703 4.09193 15.116L5.15395 15.2381C5.20004 15.2434 5.24249 15.2675 5.26838 15.306C5.61786 15.8258 6.24961 16.0849 6.86708 15.955Z" fill="#FFD064"/>
<path d="M19.5051 9.97894C18.658 8.27947 17.6579 6.66068 16.5171 5.14267C15.0293 2.91101 12.2369 2.0691 9.82422 2.9562C10.9209 3.35682 11.9045 4.09705 12.6016 5.14267C13.7424 6.66068 14.7425 8.27947 15.5896 9.97894L22.0089 22.8577L25.1906 21.3855L19.5051 9.97894Z" fill="#FFC250"/>
<path d="M19.6744 13.383L19.7189 12.7946C19.7861 11.9051 19.4196 11.0378 18.7349 10.466L16.7162 8.78026C16.4749 8.57877 16.1133 8.78691 16.1664 9.09678L16.6364 11.8414C16.6759 12.0721 16.8118 12.275 17.0102 12.3992L19.0693 13.6888C19.3218 13.847 19.652 13.6802 19.6744 13.383Z" fill="#4A80AA"/>
<path d="M18.7349 10.466L16.7162 8.78026C16.4749 8.57877 16.1133 8.78691 16.1664 9.09678L16.3122 9.94859L17.0993 10.6059C17.784 11.1777 18.1505 12.0449 18.0833 12.9345L18.0734 13.0651L19.0692 13.6888C19.3218 13.847 19.652 13.6801 19.6744 13.383L19.7189 12.7946C19.7861 11.905 19.4196 11.0378 18.7349 10.466Z" fill="#407093"/>
<path d="M13.3881 17.6197C13.6839 17.9167 14.0468 18.1382 14.4462 18.2656C14.5014 18.2832 14.5456 18.3249 14.5662 18.3791L14.7369 18.8268C14.8552 19.1368 15.1724 19.3358 15.4997 19.2818C15.5163 19.2791 15.5328 19.2758 15.5492 19.2719L16.4508 19.0621C16.8146 18.9774 17.0855 19.3935 16.8608 19.6919L15.93 20.9284C15.4016 21.6303 15.1338 22.4858 15.1575 23.3513H26.1628C26.3463 23.3513 26.4775 23.1728 26.4211 22.9983C26.3062 22.6426 26.2198 22.278 26.1635 21.9077L25.6712 18.67C25.4796 17.4099 24.9462 16.2265 24.1289 15.2484L21.9998 12.7002C21.2934 11.8547 20.3175 11.2779 19.236 11.0667L19.1227 11.0446C17.7089 10.7685 16.2459 11.1419 15.1374 12.0618L14.66 12.4579C13.9697 13.0307 13.6574 13.9411 13.8508 14.8169L14.0084 15.5308L13.0898 16.5422L13.1253 17.3557L13.3881 17.6197Z" fill="#407093"/>
<path d="M7.71198 10.1504C8.09765 10.1504 8.41029 9.83776 8.41029 9.45209C8.41029 9.06643 8.09765 8.75378 7.71198 8.75378C7.32632 8.75378 7.01367 9.06643 7.01367 9.45209C7.01367 9.83776 7.32632 10.1504 7.71198 10.1504Z" fill="#707DD3"/>
<path d="M0.697124 12.0555L0.98537 12.6553L1.13688 12.2521C1.23475 11.9916 1.48793 11.8226 1.766 11.8322L2.48165 11.8569C2.76821 11.8668 2.92051 11.5223 2.72028 11.317L1.61191 10.1807L1.48186 10.2229C0.719378 10.4702 0.349868 11.333 0.697124 12.0555Z" fill="#407093"/>
<path d="M2.72051 11.317L1.61213 10.1807L1.48209 10.2229C1.2276 10.3054 1.01719 10.4568 0.862305 10.6484L1.78827 11.5977C1.8573 11.6685 1.89168 11.7525 1.89927 11.8368L2.48188 11.8569C2.76844 11.8668 2.92074 11.5222 2.72051 11.317Z" fill="#365E7D"/>
<path d="M4.7724 12.9745C5.02531 12.9745 5.23034 12.7695 5.23034 12.5165C5.23034 12.2636 5.02531 12.0586 4.7724 12.0586C4.51948 12.0586 4.31445 12.2636 4.31445 12.5165C4.31445 12.7695 4.51948 12.9745 4.7724 12.9745Z" fill="#FFC250"/>
<path d="M6.54242 12.9745C6.79533 12.9745 7.00036 12.7695 7.00036 12.5165C7.00036 12.2636 6.79533 12.0586 6.54242 12.0586C6.2895 12.0586 6.08447 12.2636 6.08447 12.5165C6.08447 12.7695 6.2895 12.9745 6.54242 12.9745Z" fill="#FFC250"/>
<path d="M5.79828 14.246C6.05119 14.246 6.25622 14.0409 6.25622 13.788C6.25622 13.5351 6.05119 13.3301 5.79828 13.3301C5.54536 13.3301 5.34033 13.5351 5.34033 13.788C5.34033 14.0409 5.54536 14.246 5.79828 14.246Z" fill="#FFC250"/>
<path d="M16.0103 16.1798C16.3688 16.1798 16.6593 15.8893 16.6593 15.5308C16.6593 15.1724 16.3688 14.8818 16.0103 14.8818C15.6519 14.8818 15.3613 15.1724 15.3613 15.5308C15.3613 15.8893 15.6519 16.1798 16.0103 16.1798Z" fill="#95D6A4"/>
<path d="M13.6436 16.5013L13.0899 16.5423L13.0333 16.6047C12.8764 16.7774 12.861 17.0359 12.996 17.226L13.1253 17.3558L13.7037 17.3129C13.9278 17.2963 14.0961 17.1012 14.0795 16.877C14.0629 16.653 13.868 16.4852 13.6436 16.5013Z" fill="#E28086"/>
<path d="M13.2497 6.65151L14.3003 6.70282L16.0545 6.47479C16.0545 6.47479 16.8548 6.56882 17.2519 6.16651C17.4901 5.92514 17.6703 5.62229 17.7656 5.27741L18.6994 1.89555C18.7996 1.53274 18.458 1.20315 18.099 1.31616L15.6884 2.07506C14.8646 2.33441 14.2005 2.94945 13.8787 3.7509L12.9204 6.13782C12.8244 6.37671 12.9925 6.63896 13.2497 6.65151Z" fill="#FFE07D"/>
<path d="M18.0989 1.31617L16.685 1.7613C16.6856 1.80502 16.68 1.85 16.6674 1.89557L15.7336 5.27742C15.5375 5.98723 14.9818 6.51853 14.3003 6.70283L15.7006 6.77123C16.6537 6.81779 17.5115 6.19716 17.7655 5.27742L18.6993 1.89557C18.7995 1.53275 18.4579 1.20311 18.0989 1.31617Z" fill="#FFD064"/>
<path d="M16.7799 11.9067L16.8933 11.9289C17.9747 12.1401 18.9505 12.7168 19.6571 13.5624L21.7862 16.1106C22.6035 17.0887 23.1369 18.2721 23.3285 19.5322L23.8208 22.7699C23.8506 22.9656 23.8894 23.1595 23.9356 23.3515H26.163C26.3465 23.3515 26.4777 23.173 26.4213 22.9985C26.3064 22.6428 26.22 22.2782 26.1637 21.9079L25.6714 18.6702C25.4798 17.4101 24.9463 16.2267 24.1291 15.2486L22 12.7004C21.2935 11.8548 20.3176 11.2781 19.2361 11.0669L19.1229 11.0448C17.8306 10.7925 16.4974 11.083 15.4312 11.8372C15.8771 11.7972 16.331 11.819 16.7799 11.9067Z" fill="#365E7D"/>
<path d="M21.0776 13.2973C21.0776 13.2973 21.6638 12.7126 21.6925 12.3657C21.7353 11.8473 21.6316 11.32 21.382 10.8474L20.1535 8.52192C20.0067 8.24396 19.5932 8.29943 19.5247 8.60624L18.9186 11.3241C18.8677 11.5525 18.9166 11.7917 19.0529 11.9819L20.0499 13.3718L21.0776 13.2973Z" fill="#4A80AA"/>
<path d="M21.3819 10.8475L20.1534 8.52204C20.0066 8.24408 19.5931 8.29955 19.5246 8.60636L19.3027 9.60136L19.9929 10.9079C20.3986 11.6759 20.4178 12.5882 20.0498 13.372L20.4689 13.9563C20.6426 14.1985 21.0114 14.1693 21.1449 13.9029L21.4092 13.3753C21.8087 12.5777 21.7985 11.6363 21.3819 10.8475Z" fill="#407093"/>
<path d="M21.8913 27C23.6505 27 25.0766 25.5739 25.0766 23.8148C25.0766 22.0556 23.6505 20.6295 21.8913 20.6295C20.1321 20.6295 18.7061 22.0556 18.7061 23.8148C18.7061 25.5739 20.1321 27 21.8913 27Z" fill="#B3E59F"/>
<path d="M23.7593 21.2352C24.1399 21.76 24.365 22.405 24.365 23.103C24.365 24.8621 22.9389 26.2882 21.1798 26.2882C20.4818 26.2882 19.8368 26.0632 19.312 25.6825C19.8908 26.4806 20.8303 27 21.8915 27C23.6507 27 25.0768 25.5739 25.0768 23.8148C25.0768 22.7535 24.5573 21.8141 23.7593 21.2352Z" fill="#95D6A4"/>
<path d="M21.5334 25.0129C21.4255 25.0129 21.3219 24.97 21.2456 24.8937L20.4346 24.0827C20.2757 23.9238 20.2757 23.6661 20.4346 23.5072C20.5935 23.3483 20.8512 23.3483 21.0101 23.5072L21.5334 24.0305L22.8694 22.6943C23.0283 22.5355 23.286 22.5355 23.4449 22.6943C23.6039 22.8533 23.6039 23.1109 23.4449 23.2699L21.8211 24.8937C21.7448 24.97 21.6413 25.0129 21.5334 25.0129Z" fill="#F2FBFF"/>
<path d="M12.7813 22.4157C12.9113 21.9771 12.5826 21.5369 12.1251 21.5369C11.6753 21.5369 11.3478 21.1105 11.4639 20.676L11.5077 20.5121C11.6237 20.0776 11.2962 19.6512 10.8465 19.6512H10.7548C10.3175 19.6512 9.9924 19.2466 10.0865 18.8196L10.1351 18.5991C10.2292 18.172 9.90402 17.7675 9.4667 17.7675H8.51305L7.759 20.2733C7.53899 21.0044 7.42725 21.7637 7.42725 22.5272V23.0802C7.42725 23.23 7.54869 23.3515 7.69856 23.3515H12.504L12.7813 22.4157Z" fill="#F9F6F6"/>
<path d="M19.7038 16.9415L21.0879 17.1321C21.3105 17.1626 21.5159 17.0071 21.5465 16.7844C21.5772 16.5618 21.4216 16.3564 21.1989 16.3258L19.8148 16.1352C19.0455 16.0292 18.273 16.1587 17.5789 16.5103L16.7247 16.9473C16.5555 17.034 16.4515 17.2127 16.46 17.4028C16.4684 17.5928 16.5878 17.7617 16.7643 17.8331L17.7136 18.2166C18.1251 18.3789 18.491 18.6453 18.7715 18.9872L19.2445 19.5637C19.325 19.6618 19.4417 19.7126 19.5594 19.7126C19.6502 19.7126 19.7416 19.6823 19.8173 19.6202C19.9911 19.4777 20.0164 19.2213 19.8738 19.0475L19.4008 18.471C19.2138 18.2431 18.9978 18.0409 18.7604 17.8692C19.0835 17.9409 19.3942 18.0648 19.6797 18.2383L20.8934 18.9757C20.9595 19.0159 21.0324 19.0349 21.1044 19.0349C21.2419 19.0349 21.376 18.9653 21.4526 18.8392C21.5693 18.6471 21.5082 18.3968 21.3161 18.2801L20.1024 17.5427C19.627 17.2539 19.0965 17.0729 18.5476 17.0091C18.9223 16.9116 19.3135 16.8878 19.7038 16.9415Z" fill="#4A80AA"/>
</g>
<defs>
<clipPath id="clip0_114_1601">
<rect width="27" height="27" fill="white"/>
</clipPath>
</defs>
</svg>
