<svg width="24" height="24" viewBox="0 0 24 24" fill="none" xmlns="http://www.w3.org/2000/svg">
<g clip-path="url(#clip0_114_1588)">
<path d="M24 8.94619C24.0004 9.35262 23.9783 9.75876 23.9338 10.1627C23.4 15.211 19.531 20.52 12 22.9655C4.48139 20.5324 0.600009 15.24 0.0662161 10.1627C0.0215847 9.75877 -0.000518473 9.35262 9.2288e-06 8.94619C9.2288e-06 4.9324 2.44966 1.44826 6.00001 1.44826C7.15631 1.44602 8.29902 1.69744 9.3476 2.18481L15.2979 1.91998C16.1641 1.60594 17.0787 1.44628 18 1.44826C21.5504 1.44826 24 4.9324 24 8.94619Z" fill="#DF4D60"/>
<path d="M24 8.94619C24.0004 9.35262 23.9783 9.75876 23.9338 10.1627C22.4524 13.9696 17.669 16.7586 12 16.7586C6.33104 16.7586 1.5476 13.9696 0.0662161 10.1627C0.0215847 9.75877 -0.000518473 9.35262 9.2288e-06 8.94619C9.2288e-06 4.9324 2.44966 1.44826 6.00001 1.44826C7.15631 1.44602 8.29902 1.69744 9.3476 2.18481L15.2979 1.91998C16.1641 1.60594 17.0787 1.44628 18 1.44826C21.5504 1.44826 24 4.9324 24 8.94619Z" fill="#FF5364"/>
<path d="M21.2069 16.7834C19.4725 18.9914 17.2312 20.7487 14.6731 21.9061C14.4248 22.0261 14.1724 22.142 13.9158 22.2455C13.3075 22.5103 12.6662 22.7503 12 22.9655C11.7186 22.8744 11.4413 22.7793 11.1724 22.6799V18.4137C10.1374 17.2806 9.54917 15.8101 9.5172 14.2758C9.53983 12.8138 9.91456 11.3788 10.6096 10.0924C10.6565 9.99074 10.659 9.87423 10.6166 9.77067C10.5743 9.66711 10.4908 9.58579 10.3862 9.54615C9.18232 9.12985 7.9192 8.91048 6.64548 8.89649C4.66341 8.23442 4.52686 6.25235 4.55582 5.4827C4.56163 5.29948 4.68833 5.14236 4.86617 5.09787L7.26617 4.50201C7.66603 4.40056 8.01402 4.15431 8.24272 3.81098L9.21513 2.35442C9.25565 2.29514 9.29988 2.23847 9.34755 2.18477C9.55296 1.94613 9.82319 1.77221 10.1255 1.68408C11.2787 1.32083 12.4728 1.1026 13.68 1.03442C14.3254 1.06978 14.9202 1.39532 15.2979 1.91994C16.1596 3.10314 16.6088 4.53659 16.5765 5.99994C16.5765 7.05925 16.1213 7.66753 15.4965 7.95304V7.96132L15.6165 8.79304L15.7075 9.43029C15.73 9.59422 15.8494 9.72829 16.0096 9.7696C16.705 10.0065 17.3277 10.4183 17.8179 10.9655C18.5834 11.7268 20.1269 14.2137 21.2069 16.7834Z" fill="#35495E"/>
<path d="M15.6166 8.793C15.2892 8.91899 14.9411 8.98216 14.5903 8.97921C14.1383 8.9762 13.6907 8.8892 13.2703 8.72266C12.7996 8.53211 12.4906 8.07602 12.4883 7.56817V4.75852C12.4883 4.52999 12.6735 4.34473 12.9021 4.34473C13.1306 4.34473 13.3159 4.52999 13.3159 4.75852V7.56817C13.3157 7.73775 13.419 7.89026 13.5766 7.953C14.1554 8.20223 14.8087 8.2156 15.3972 7.99024C15.4289 7.97626 15.4623 7.96652 15.4966 7.96128L15.6166 8.793Z" fill="#2C3E50"/>
<path d="M18.6001 17.7185C18.5254 17.9343 18.2915 18.0503 18.0745 17.9792C17.2965 17.6752 16.4181 17.7792 15.7325 18.2565C14.9249 18.8918 14.4623 19.8692 14.4828 20.8965C14.4764 21.2425 14.5412 21.5862 14.6732 21.9061C14.4249 22.0261 14.1725 22.142 13.9159 22.2454C13.7387 21.818 13.65 21.3591 13.6552 20.8965C13.6361 19.6039 14.2263 18.3776 15.2483 17.5861C16.1511 16.9541 17.3072 16.8071 18.3394 17.193C18.5551 17.2677 18.6711 17.5016 18.6001 17.7185Z" fill="#2C3E50"/>
<path d="M6.20708 4.76685V5.99995C6.20708 6.22848 6.02182 6.41374 5.79329 6.41374H4.61398C4.56373 6.1061 4.54432 5.79421 4.55605 5.48271C4.56185 5.29948 4.68856 5.14237 4.86639 5.09788L6.20708 4.76685Z" fill="#3F5C6C"/>
</g>
<defs>
<clipPath id="clip0_114_1588">
<rect width="24" height="24" fill="white"/>
</clipPath>
</defs>
</svg>
